<svg width="28" height="27" viewBox="0 0 28 27" fill="none" xmlns="http://www.w3.org/2000/svg">
<path d="M14 27C21.732 27 28 20.9558 28 13.5C28 6.04416 21.732 0 14 0C6.26801 0 0 6.04416 0 13.5C0 20.9558 6.26801 27 14 27Z" fill="#EE4B2B"/>
<path d="M10.8636 7.36364H12.2727V15.6818C12.2727 16.4242 12.1364 17.0549 11.8636 17.5739C11.5909 18.0928 11.2064 18.4867 10.7102 18.7557C10.214 19.0246 9.62879 19.1591 8.95455 19.1591C8.31818 19.1591 7.75189 19.0436 7.25568 18.8125C6.75947 18.5777 6.36932 18.2443 6.08523 17.8125C5.80114 17.3807 5.65909 16.8674 5.65909 16.2727H7.04545C7.04545 16.6023 7.12689 16.8902 7.28977 17.1364C7.45644 17.3788 7.68371 17.5682 7.97159 17.7045C8.25947 17.8409 8.58712 17.9091 8.95455 17.9091C9.35985 17.9091 9.70455 17.8239 9.98864 17.6534C10.2727 17.483 10.4886 17.233 10.6364 16.9034C10.7879 16.5701 10.8636 16.1629 10.8636 15.6818V7.36364ZM15.0966 19V7.36364H16.5057V17.75H21.9148V19H15.0966Z" fill="white"/>
</svg>
