<svg width="198" height="27" viewBox="0 0 198 27" fill="none" xmlns="http://www.w3.org/2000/svg">
<path d="M29.4716 4.30682V2.63636H44.2372V4.30682H37.7841V23H35.9247V4.30682H29.4716ZM46.4695 23V7.72727H48.1896V10.0739H48.3189C48.6238 9.30492 49.1541 8.68513 49.9098 8.21449C50.6721 7.73722 51.5339 7.49858 52.495 7.49858C52.6409 7.49858 52.8033 7.50189 52.9822 7.50852C53.1612 7.51515 53.3104 7.52178 53.4297 7.52841V9.32812C53.3501 9.31487 53.2109 9.29498 53.0121 9.26847C52.8132 9.24195 52.5978 9.22869 52.3658 9.22869C51.5703 9.22869 50.861 9.39773 50.2379 9.7358C49.6214 10.0672 49.1342 10.5279 48.7763 11.1179C48.4183 11.7079 48.2393 12.3807 48.2393 13.1364V23H46.4695ZM60.7156 23.348C59.7942 23.348 58.9523 23.169 58.19 22.8111C57.4277 22.4465 56.8211 21.9228 56.3704 21.2401C55.9196 20.5507 55.6942 19.7154 55.6942 18.7344C55.6942 17.9787 55.8368 17.3423 56.1218 16.8253C56.4068 16.3082 56.8112 15.884 57.3349 15.5526C57.8585 15.2211 58.4783 14.9593 59.1942 14.767C59.9102 14.5748 60.699 14.4257 61.5607 14.3196C62.4158 14.2135 63.1384 14.1207 63.7283 14.0412C64.3249 13.9616 64.779 13.8357 65.0906 13.6634C65.4021 13.491 65.5579 13.2126 65.5579 12.8281V12.4702C65.5579 11.4295 65.2463 10.6108 64.6232 10.0142C64.0067 9.41098 63.1185 9.10938 61.9585 9.10938C60.8581 9.10938 59.9599 9.35133 59.2638 9.83523C58.5745 10.3191 58.0906 10.8892 57.8121 11.5455L56.1317 10.9389C56.4764 10.1037 56.9537 9.4375 57.5636 8.94034C58.1734 8.43655 58.8562 8.07528 59.6119 7.85653C60.3675 7.63116 61.1332 7.51847 61.9087 7.51847C62.4921 7.51847 63.0986 7.5947 63.7283 7.74716C64.3647 7.89962 64.9547 8.16477 65.4982 8.54261C66.0418 8.91383 66.4826 9.43419 66.8207 10.1037C67.1587 10.7666 67.3278 11.6084 67.3278 12.6293V23H65.5579V20.5838H65.4485C65.2364 21.0346 64.9215 21.4721 64.5039 21.8963C64.0863 22.3205 63.5626 22.6686 62.9329 22.9403C62.3031 23.2121 61.564 23.348 60.7156 23.348ZM60.9542 21.7273C61.8955 21.7273 62.7108 21.5185 63.4002 21.1009C64.0896 20.6832 64.6199 20.1297 64.9911 19.4403C65.369 18.7443 65.5579 17.9787 65.5579 17.1435V14.9361C65.4253 15.062 65.2032 15.1747 64.8917 15.2741C64.5868 15.3736 64.2321 15.4631 63.8278 15.5426C63.43 15.6155 63.0323 15.6785 62.6346 15.7315C62.2369 15.7846 61.8789 15.831 61.5607 15.8707C60.699 15.9768 59.9632 16.1425 59.3533 16.3679C58.7435 16.5933 58.2762 16.9048 57.9513 17.3026C57.6265 17.6937 57.4641 18.1974 57.4641 18.8139C57.4641 19.742 57.7956 20.4612 58.4585 20.9716C59.1213 21.4754 59.9532 21.7273 60.9542 21.7273ZM73.8058 13.4545V23H72.0359V7.72727H73.756V10.1236H73.9151C74.2731 9.34138 74.8299 8.71496 75.5856 8.24432C76.3479 7.76705 77.2892 7.52841 78.4094 7.52841C79.4369 7.52841 80.3384 7.74384 81.114 8.17472C81.8962 8.59896 82.5027 9.22538 82.9336 10.054C83.3711 10.8826 83.5898 11.9001 83.5898 13.1065V23H81.82V13.2159C81.82 11.9631 81.4686 10.9721 80.766 10.2429C80.07 9.51373 79.1353 9.14915 77.962 9.14915C77.1599 9.14915 76.4473 9.3215 75.8242 9.66619C75.2011 10.0109 74.7073 10.508 74.3427 11.1577C73.9847 11.8007 73.8058 12.5663 73.8058 13.4545ZM98.5121 11.0781L96.8913 11.5355C96.7322 11.0781 96.5069 10.6638 96.2152 10.2926C95.9235 9.9214 95.5424 9.62642 95.0717 9.40767C94.6077 9.18892 94.031 9.07955 93.3416 9.07955C92.3075 9.07955 91.459 9.32481 90.7962 9.81534C90.1333 10.3059 89.8018 10.9389 89.8018 11.7145C89.8018 12.3707 90.0272 12.9044 90.478 13.3153C90.9354 13.7197 91.638 14.0412 92.5859 14.2798L94.8928 14.8466C96.1721 15.1581 97.13 15.652 97.7663 16.3281C98.4093 17.0043 98.7308 17.8527 98.7308 18.8736C98.7308 19.7353 98.4922 20.5009 98.0149 21.1705C97.5376 21.84 96.8714 22.367 96.0163 22.7514C95.1679 23.1293 94.1835 23.3182 93.0632 23.3182C91.5717 23.3182 90.3421 22.9834 89.3743 22.3139C88.4065 21.6378 87.7867 20.6634 87.5149 19.3906L89.2152 18.973C89.4339 19.8812 89.8615 20.5672 90.4979 21.0312C91.1409 21.4953 91.986 21.7273 93.0334 21.7273C94.2067 21.7273 95.1447 21.4654 95.8473 20.9418C96.55 20.4115 96.9013 19.7486 96.9013 18.9531C96.9013 18.3366 96.6958 17.8196 96.2848 17.402C95.8738 16.9777 95.2507 16.6662 94.4155 16.4673L91.9197 15.8707C90.594 15.5526 89.6129 15.0488 88.9766 14.3594C88.3402 13.67 88.022 12.8149 88.022 11.794C88.022 10.9522 88.2507 10.2131 88.7081 9.5767C89.1655 8.93371 89.7952 8.42992 90.5973 8.06534C91.3994 7.70076 92.3142 7.51847 93.3416 7.51847C94.7403 7.51847 95.8572 7.83665 96.6925 8.47301C97.5343 9.10275 98.1409 9.97112 98.5121 11.0781ZM102.626 23V7.72727H104.406V23H102.626ZM103.531 5.10227C103.166 5.10227 102.855 4.97964 102.596 4.73438C102.338 4.48248 102.208 4.18087 102.208 3.82954C102.208 3.47822 102.338 3.17992 102.596 2.93466C102.855 2.68276 103.166 2.55682 103.531 2.55682C103.895 2.55682 104.207 2.68276 104.466 2.93466C104.724 3.17992 104.853 3.47822 104.853 3.82954C104.853 4.18087 104.724 4.48248 104.466 4.73438C104.207 4.97964 103.895 5.10227 103.531 5.10227ZM115.102 7.72727V9.26847H107.814V7.72727H115.102ZM110.091 4.06818H111.871V19.0128C111.871 19.6491 111.98 20.1496 112.199 20.5142C112.418 20.8722 112.703 21.1274 113.054 21.2798C113.405 21.4257 113.78 21.4986 114.178 21.4986C114.41 21.4986 114.608 21.4853 114.774 21.4588C114.94 21.4257 115.086 21.3925 115.212 21.3594L115.589 22.9602C115.417 23.0265 115.205 23.0862 114.953 23.1392C114.701 23.1989 114.39 23.2287 114.018 23.2287C113.369 23.2287 112.742 23.0862 112.139 22.8011C111.543 22.5161 111.052 22.0919 110.668 21.5284C110.283 20.965 110.091 20.2656 110.091 19.4304V4.06818Z" fill="#0070C6"/>
<path d="M119.728 23V2.63636H131.093V3.78977H120.971V12.2315H130.149V13.3849H120.971V23H119.728ZM135.767 23V7.72727H136.97V23H135.767ZM136.373 5.02273C136.108 5.02273 135.876 4.92992 135.677 4.74432C135.485 4.55871 135.389 4.33333 135.389 4.06818C135.389 3.80303 135.485 3.57765 135.677 3.39204C135.869 3.20644 136.101 3.11364 136.373 3.11364C136.638 3.11364 136.867 3.20644 137.059 3.39204C137.258 3.57765 137.358 3.80303 137.358 4.06818C137.358 4.33333 137.261 4.55871 137.069 4.74432C136.877 4.92992 136.645 5.02273 136.373 5.02273ZM143.264 13.0966V23H142.051V7.72727H143.234V10.1435H143.353C143.711 9.35464 144.285 8.72159 145.074 8.24432C145.862 7.76705 146.8 7.52841 147.887 7.52841C148.915 7.52841 149.816 7.74716 150.592 8.18466C151.374 8.62216 151.984 9.24527 152.422 10.054C152.866 10.8561 153.088 11.8139 153.088 12.9276V23H151.875V12.9773C151.875 11.678 151.487 10.634 150.711 9.84517C149.942 9.04972 148.925 8.65199 147.659 8.65199C146.81 8.65199 146.055 8.83759 145.392 9.20881C144.729 9.58002 144.208 10.1004 143.831 10.7699C143.453 11.4328 143.264 12.2083 143.264 13.0966ZM163.369 23.3182C162.143 23.3182 161.072 22.9801 160.157 22.304C159.243 21.6278 158.533 20.6965 158.029 19.5099C157.532 18.3168 157.284 16.9479 157.284 15.4034C157.284 13.8722 157.536 12.5133 158.039 11.3267C158.55 10.1335 159.262 9.19886 160.177 8.52273C161.092 7.83996 162.159 7.49858 163.379 7.49858C164.254 7.49858 165.013 7.66761 165.656 8.00568C166.306 8.33712 166.849 8.77794 167.287 9.32812C167.731 9.87831 168.069 10.4815 168.301 11.1378H168.42V2.63636H169.623V23H168.45V19.669H168.301C168.056 20.3253 167.714 20.9318 167.277 21.4886C166.839 22.0388 166.296 22.483 165.646 22.821C164.996 23.1525 164.237 23.3182 163.369 23.3182ZM163.478 22.1946C164.512 22.1946 165.397 21.8996 166.133 21.3097C166.876 20.7131 167.442 19.9044 167.833 18.8835C168.231 17.8561 168.43 16.6927 168.43 15.3935C168.43 14.0942 168.231 12.9375 167.833 11.9233C167.442 10.9025 166.876 10.1004 166.133 9.51705C165.397 8.92708 164.512 8.6321 163.478 8.6321C162.431 8.6321 161.533 8.9304 160.784 9.52699C160.041 10.117 159.471 10.9223 159.074 11.9432C158.682 12.964 158.487 14.1141 158.487 15.3935C158.487 16.6728 158.682 17.8262 159.074 18.8537C159.471 19.8812 160.041 20.6965 160.784 21.2997C161.533 21.8963 162.431 22.1946 163.478 22.1946ZM181.038 23.3182C179.659 23.3182 178.459 22.9768 177.439 22.294C176.418 21.6113 175.629 20.6766 175.072 19.4901C174.515 18.3035 174.237 16.9512 174.237 15.4332C174.237 13.9086 174.515 12.5497 175.072 11.3565C175.636 10.1634 176.408 9.22206 177.389 8.53267C178.37 7.84328 179.49 7.49858 180.75 7.49858C181.605 7.49858 182.413 7.67093 183.176 8.01562C183.945 8.35369 184.621 8.84422 185.204 9.48722C185.794 10.1302 186.255 10.9058 186.586 11.8139C186.924 12.7221 187.093 13.7429 187.093 14.8764V15.6321H175.002V14.5284H185.88C185.88 13.4214 185.655 12.4238 185.204 11.5355C184.753 10.6473 184.14 9.94129 183.365 9.41761C182.589 8.89394 181.717 8.6321 180.75 8.6321C179.735 8.6321 178.831 8.91714 178.035 9.48722C177.246 10.0507 176.62 10.813 176.156 11.7741C175.699 12.7353 175.46 13.8092 175.44 14.9957V15.4929C175.44 16.7656 175.662 17.9091 176.106 18.9233C176.557 19.9309 177.2 20.7296 178.035 21.3196C178.87 21.9029 179.871 22.1946 181.038 22.1946C181.873 22.1946 182.586 22.0554 183.176 21.777C183.772 21.492 184.26 21.1473 184.637 20.7429C185.015 20.3385 185.3 19.9474 185.493 19.5696L186.596 20.017C186.364 20.5275 186.003 21.0379 185.512 21.5483C185.029 22.0521 184.412 22.473 183.663 22.8111C182.921 23.1491 182.046 23.3182 181.038 23.3182ZM191.27 23V7.72727H192.453V10.1136H192.562C192.894 9.33144 193.454 8.70502 194.243 8.23438C195.031 7.7571 195.93 7.51847 196.937 7.51847C197.043 7.51847 197.149 7.51847 197.255 7.51847C197.361 7.51847 197.461 7.52178 197.554 7.52841V8.75142C197.474 8.74479 197.378 8.73485 197.265 8.72159C197.159 8.7017 197.027 8.69176 196.868 8.69176C196.019 8.69176 195.263 8.87405 194.6 9.23864C193.944 9.60322 193.427 10.107 193.049 10.75C192.672 11.3864 192.483 12.1155 192.483 12.9375V23H191.27Z" fill="#EE4B2B"/>
<path d="M14 27C21.732 27 28 20.9558 28 13.5C28 6.04416 21.732 0 14 0C6.26801 0 0 6.04416 0 13.5C0 20.9558 6.26801 27 14 27Z" fill="#EE4B2B"/>
<path d="M10.8636 7.36364H12.2727V15.6818C12.2727 16.4242 12.1364 17.0549 11.8636 17.5739C11.5909 18.0928 11.2064 18.4867 10.7102 18.7557C10.214 19.0246 9.62879 19.1591 8.95455 19.1591C8.31818 19.1591 7.75189 19.0436 7.25568 18.8125C6.75947 18.5777 6.36932 18.2443 6.08523 17.8125C5.80114 17.3807 5.65909 16.8674 5.65909 16.2727H7.04545C7.04545 16.6023 7.12689 16.8902 7.28977 17.1364C7.45644 17.3788 7.68371 17.5682 7.97159 17.7045C8.25947 17.8409 8.58712 17.9091 8.95455 17.9091C9.35985 17.9091 9.70455 17.8239 9.98864 17.6534C10.2727 17.483 10.4886 17.233 10.6364 16.9034C10.7879 16.5701 10.8636 16.1629 10.8636 15.6818V7.36364ZM15.0966 19V7.36364H16.5057V17.75H21.9148V19H15.0966Z" fill="white"/>
</svg>
